<svg width="32" height="32" viewBox="0 0 32 32" fill="none" xmlns="http://www.w3.org/2000/svg">
  <defs>
    <linearGradient id="trophyGradient" x1="0%" y1="0%" x2="100%" y2="100%">
      <stop offset="0%" style="stop-color:#f59e0b;stop-opacity:1" />
      <stop offset="100%" style="stop-color:#d97706;stop-opacity:1" />
    </linearGradient>
    <linearGradient id="backgroundGradient" x1="0%" y1="0%" x2="100%" y2="100%">
      <stop offset="0%" style="stop-color:#1e293b;stop-opacity:1" />
      <stop offset="100%" style="stop-color:#0f172a;stop-opacity:1" />
    </linearGradient>
    <linearGradient id="baseGradient" x1="0%" y1="0%" x2="100%" y2="100%">
      <stop offset="0%" style="stop-color:#6b7280;stop-opacity:1" />
      <stop offset="100%" style="stop-color:#4b5563;stop-opacity:1" />
    </linearGradient>
  </defs>
  
  <!-- Background circle -->
  <circle cx="16" cy="16" r="15" fill="url(#backgroundGradient)" stroke="url(#trophyGradient)" stroke-width="2"/>
  
  <!-- Trophy cup -->
  <path d="M12 8H20C21.1 8 22 8.9 22 10V12C22 13.1 21.1 14 20 14H18V16C18 17.1 17.1 18 16 18S14 17.1 14 16V14H12C10.9 14 10 13.1 10 12V10C10 8.9 10.9 8 12 8Z" fill="url(#trophyGradient)" stroke="white" stroke-width="0.5"/>
  
  <!-- Trophy handles -->
  <path d="M8 12C8 10.5 9.5 9 11 9V11C9.5 11 8 11.5 8 12Z" fill="url(#trophyGradient)" stroke="white" stroke-width="0.5"/>
  <path d="M24 12C24 10.5 22.5 9 21 9V11C22.5 11 24 11.5 24 12Z" fill="url(#trophyGradient)" stroke="white" stroke-width="0.5"/>
  
  <!-- Trophy base -->
  <rect x="14" y="18" width="4" height="2" fill="url(#baseGradient)" stroke="white" stroke-width="0.5"/>
  <rect x="13" y="20" width="6" height="1" fill="url(#baseGradient)" stroke="white" stroke-width="0.5"/>
  
  <!-- Stadium text -->
  <text x="16" y="26" font-family="Arial, sans-serif" font-size="4" font-weight="bold" text-anchor="middle" fill="white">S</text>
</svg>